HIERARCHY
ROOT hip
{
	OFFSET 0.000000 0.000000 0.000000 
	CHANNELS 6 Xposition Yposition Zposition Xrotation Zrotation Yrotation
	JOINT abdomen
	{
		OFFSET 0.000000 3.402643 0.000000 
		CHANNELS 3 Xrotation Zrotation Yrotation
		JOINT chest
		{
			OFFSET 0.000000 8.438565 -0.680529 
			CHANNELS 3 Xrotation Zrotation Yrotation
			JOINT neck
			{
				OFFSET 0.000000 10.207942 -0.272212 
				CHANNELS 3 Xrotation Zrotation Yrotation
				JOINT head
				{
					OFFSET 0.000000 3.130431 0.000000 
					CHANNELS 3 Xrotation Zrotation Yrotation
					End Site
					{
						OFFSET 0.000000 3.130435 0.000000 
					}
				}
			}
			JOINT lCollar
			{
				OFFSET 3.470700 6.669187 -0.816635 
				CHANNELS 3 Yrotation Zrotation Xrotation
				JOINT lShldr
				{
					OFFSET 3.198488 0.000000 0.000000 
					CHANNELS 3 Zrotation Yrotation Xrotation
					JOINT lForeArm
					{
						OFFSET 10.139888 0.000000 0.000000 
						CHANNELS 3 Yrotation Zrotation Xrotation
						JOINT lHand
						{
							OFFSET 8.370511 0.000000 0.000000 
							CHANNELS 3 Zrotation Yrotation Xrotation
							End Site
							{
								OFFSET 4.083176 0.000000 0.000000 
							}
						}
					}
				}
			}
			JOINT rCollar
			{
				OFFSET -3.470700 6.669187 -0.816635 
				CHANNELS 3 Yrotation Zrotation Xrotation
				JOINT rShldr
				{
					OFFSET -3.198488 0.000000 0.000000 
					CHANNELS 3 Zrotation Yrotation Xrotation
					JOINT rForeArm
					{
						OFFSET -10.139888 0.000000 0.000000 
						CHANNELS 3 Yrotation Zrotation Xrotation
						JOINT rHand
						{
							OFFSET -8.370511 0.000000 0.000000 
							CHANNELS 3 Zrotation Yrotation Xrotation
							End Site
							{
								OFFSET -4.083176 0.000000 0.000000 
							}
						}
					}
				}
			}
		}
	}
	JOINT lThigh
	{
		OFFSET 5.308129 -1.633274 1.361059 
		CHANNELS 3 Xrotation Zrotation Yrotation
		JOINT lShin
		{
			OFFSET -2.041588 -20.007561 0.000000 
			CHANNELS 3 Xrotation Zrotation Yrotation
			JOINT lFoot
			{
				OFFSET 0.000000 -19.190928 -1.224953 
				CHANNELS 3 Xrotation Yrotation Zrotation
				End Site
				{
					OFFSET 0.000000 -2.449906 4.627600 
				}
			}
		}
	}
	JOINT rThigh
	{
		OFFSET -5.308129 -1.633274 1.361059 
		CHANNELS 3 Xrotation Zrotation Yrotation
		JOINT rShin
		{
			OFFSET 2.041588 -20.007561 0.000000 
			CHANNELS 3 Xrotation Zrotation Yrotation
			JOINT rFoot
			{
				OFFSET 0.000000 -19.190928 -1.224953 
				CHANNELS 3 Xrotation Yrotation Zrotation
				End Site
				{
					OFFSET 0.000000 -2.449906 4.627600 
				}
			}
		}
	}
}
MOTION
Frames: 11
Frame Time: 0.011111
0.376514 52.362793 2.032031 -2.148309 -3.748305 -18.750797 29.384766 -0.982319 -4.754089 -23.655724 0.846159 -1.258619 -16.606329 -9.433372 -2.212579 23.903700 13.722637 -5.301285 2.424333 -4.683778 1.783845 -67.019745 -38.436317 27.572899 -56.998371 8.959290 11.083674 8.524705 12.647240 -37.786510 -2.738486 -1.140572 2.095526 66.363411 18.484770 35.624905 60.562920 -9.322088 12.668390 -8.534408 -12.637552 41.732281 -0.058073 7.162194 -4.584997 25.168327 -5.566093 -4.232393 -21.251484 0.045118 -2.614831 -13.874890 -8.222249 20.172115 37.280430 4.837274 5.746697 -19.350195 -10.625974 -0.541896 
0.374409 52.357376 2.101498 -2.063917 -3.811395 -18.850313 29.302528 -0.849970 -4.766242 -23.587183 0.796784 -1.283186 -16.837683 -9.323168 -2.181840 23.992239 13.608307 -5.250554 2.424333 -4.683778 1.783845 -67.032333 -38.543568 27.852638 -57.157040 8.977813 11.151733 8.524705 12.647240 -37.815811 -2.738486 -1.140572 2.095526 66.433907 18.551943 35.451756 60.637161 -9.325571 12.694876 -8.534408 -12.637552 41.927589 -0.077260 7.219946 -4.551813 25.268316 -5.566445 -4.241230 -21.418642 0.046413 -2.581861 -13.853169 -7.762879 20.030600 36.575314 4.895958 5.674194 -19.648088 -9.802494 -0.372669 
0.366890 52.351963 2.170667 -1.933840 -3.837178 -18.905199 29.161316 -0.722345 -4.799751 -23.538218 0.757481 -1.299107 -16.974230 -9.290150 -2.166810 23.980328 13.525511 -5.247124 2.424333 -4.683778 1.783845 -67.064224 -38.621235 28.156073 -57.241272 8.984842 11.177797 8.524705 12.647240 -37.932991 -2.738486 -1.140572 2.095526 66.474022 18.580561 35.277481 60.754410 -9.334292 12.753015 -8.534408 -12.637552 42.113140 -0.204790 7.273374 -4.566941 25.478230 -5.567193 -4.259802 -21.611141 -0.038705 -2.590852 -13.860198 -7.313543 19.909260 35.860832 4.944786 5.597304 -19.863325 -8.936451 -0.179944 
0.356064 52.338730 2.250360 -1.867815 -3.916764 -19.033464 29.070242 -0.583574 -4.740087 -23.596867 0.784637 -1.311807 -16.830517 -9.375157 -2.188489 23.814987 13.495871 -5.321662 2.424333 -4.683778 1.783845 -67.190590 -38.472847 28.520452 -57.390255 9.005902 11.254081 8.524705 12.647240 -37.972057 -2.738486 -1.140572 2.095526 66.412476 18.464403 35.197094 60.828613 -9.337411 12.778032 -8.534408 -12.637552 42.249855 -0.272260 7.344250 -4.591776 25.739260 -5.557099 -4.310529 -21.869841 -0.172603 -2.608463 -13.732771 -6.806006 19.913954 35.146282 4.999845 5.482346 -20.135567 -8.018717 0.056841 
0.344035 52.307755 2.316220 -1.801211 -4.086362 -19.237280 29.036718 -0.383735 -4.645935 -23.714138 0.811913 -1.305920 -16.683853 -9.405079 -2.196342 23.722284 13.427723 -5.341366 2.424333 -4.683778 1.783845 -67.326698 -38.314533 28.777647 -57.506920 9.019155 11.300569 8.524705 12.647240 -38.001354 -2.738486 -1.140572 2.095526 66.350204 18.309185 35.165527 60.860901 -9.341188 12.800921 -8.534408 -12.637552 42.318214 -0.320973 7.520058 -4.581237 25.992628 -5.537498 -4.338928 -22.137526 -0.292803 -2.652298 -13.591924 -6.191328 19.872887 34.451527 5.033219 5.421186 -20.317484 -6.977934 0.331802 
0.332608 52.282799 2.387191 -1.744399 -4.169118 -19.384899 28.975479 -0.247844 -4.598437 -23.714121 0.811163 -1.315657 -16.781883 -9.393311 -2.161490 23.845005 13.420865 -5.273352 2.424333 -4.683778 1.783845 -67.397125 -38.333015 28.974598 -57.464828 9.015919 11.288194 8.524705 12.647240 -38.265030 -2.738486 -1.140572 2.095526 66.369255 18.269793 35.088150 60.839321 -9.338881 12.788379 -8.534408 -12.637552 42.327984 -0.380456 7.615788 -4.545650 26.253626 -5.527429 -4.379867 -22.344851 -0.454732 -2.676881 -13.494556 -5.683444 19.741800 33.795094 5.081858 5.328769 -20.434162 -5.744318 0.696658 
0.320578 52.270470 2.473201 -1.716156 -4.200191 -19.444427 28.894743 -0.146745 -4.588651 -23.635963 0.802482 -1.323552 -16.892073 -9.424722 -2.132315 23.790796 13.485891 -5.236589 2.424333 -4.683778 1.783845 -67.499924 -38.448673 29.230833 -57.370022 9.006246 11.242229 8.524705 12.647240 -38.636124 -2.738486 -1.140572 2.095526 66.389763 18.308516 34.874065 60.743694 -9.332797 12.742675 -8.534408 -12.637552 42.240089 -0.400001 7.605900 -4.546057 26.477030 -5.507666 -4.395772 -22.526186 -0.674496 -2.771669 -13.367921 -5.302488 19.523373 33.196995 5.130561 5.250840 -20.538345 -4.298537 1.169623 
0.307045 52.246410 2.544474 -1.697383 -4.194555 -19.475138 28.902143 -0.080579 -4.610189 -23.577333 0.793370 -1.331743 -16.976767 -9.339657 -2.162095 23.653851 13.373891 -5.315263 2.424333 -4.683778 1.783845 -67.601784 -38.525280 29.541971 -57.359089 9.004402 11.241987 8.524705 12.647240 -38.450569 -2.738486 -1.140572 2.095526 66.439926 18.346729 34.651344 60.658752 -9.327997 12.705792 -8.534408 -12.637552 42.161964 -0.399362 7.598399 -4.585960 26.625984 -5.508126 -4.428427 -22.696651 -0.768586 -2.788505 -13.260304 -4.902297 19.303905 32.689320 5.159967 5.194503 -20.617832 -2.733268 1.695710 
0.289903 52.216637 2.602514 -1.696579 -4.108435 -19.536287 28.931028 -0.151942 -4.689967 -23.587137 0.811891 -1.343072 -16.962950 -9.261818 -2.177117 23.492290 13.294196 -5.346664 2.424333 -4.683778 1.783845 -67.651031 -38.495228 30.041187 -57.262810 8.989837 11.197742 8.524705 12.647240 -37.249405 -2.738486 -1.140572 2.095526 66.488434 18.297070 34.594624 60.680336 -9.330411 12.716712 -8.534408 -12.637552 42.201027 -0.379602 7.470676 -4.573673 26.770985 -5.479715 -4.435375 -22.815044 -0.756920 -2.783220 -13.237359 -4.550792 19.261715 32.270569 5.187775 5.145411 -20.733053 -1.253962 2.182967 
0.266747 52.191978 2.660555 -1.695717 -3.993030 -19.598299 28.919657 -0.236791 -4.791381 -23.626331 0.867933 -1.367507 -16.751621 -9.384070 -2.139069 23.179398 13.536468 -5.270068 2.424333 -4.683778 1.783845 -67.682213 -38.543594 30.188368 -57.177448 8.976939 11.153809 8.524705 12.647240 -37.962296 -2.738486 -1.140572 2.095526 66.506180 18.189329 34.556305 60.701927 -9.332808 12.727635 -8.534408 -12.637552 42.191265 -0.418649 7.366428 -4.638360 26.937288 -5.493609 -4.472685 -22.879740 -0.809571 -2.806168 -13.235105 -4.229122 19.299074 31.920509 5.222411 5.084625 -20.851221 0.309206 2.769533 
0.239080 52.167011 2.720701 -1.677292 -3.996240 -19.599375 28.927162 -0.188919 -4.803810 -23.626451 0.906885 -1.370444 -16.670761 -9.543108 -2.116852 23.001591 13.778112 -5.233010 2.424333 -4.683778 1.783845 -67.734856 -38.650242 30.410458 -57.040493 8.962976 11.095878 8.524705 12.647240 -38.528702 -2.738486 -1.140572 2.095526 66.505814 18.169800 34.400051 60.595383 -9.325474 12.679871 -8.534408 -12.637552 42.054546 -0.457802 7.377894 -4.676752 27.108131 -5.484581 -4.495304 -22.927465 -0.960632 -2.856991 -13.154915 -3.760962 19.379274 31.660639 5.241464 5.057294 -20.868616 1.943734 3.388756 
